<svg width="1006" height="643" viewBox="0 0 1006 643" fill="none" xmlns="http://www.w3.org/2000/svg">
<path d="M44.0109 206.261C22.1868 281.623 183.942 317.278 241.712 305.933C241.712 305.933 345.697 269.468 368.806 287.7C391.914 305.933 450.967 257.312 436.846 195.321C422.724 133.329 369.909 158.207 381.643 116.312C378.479 53.1122 320.022 82.2773 289.212 26.3634C258.401 -29.5505 174.538 3.54422 135.159 160.071C116.501 210.269 65.8351 130.898 44.0109 206.261Z" fill="#FABC59" stroke="#FABC59"/>
<path d="M100.597 124.827C74.5933 101.459 50.9766 117.585 42.4188 128.569C42.4188 128.569 21.4345 175.268 59.9763 163.758C98.5181 152.248 90.9677 170.815 105.811 164.052C120.655 157.289 115.957 137.421 100.597 124.827Z" fill="#EC9700" stroke="#FABC59"/>
<path d="M16.1606 136.607C10.2657 130.046 5.17753 134.278 3.37034 137.214C3.37034 137.214 -0.920415 149.807 7.48857 146.94C15.8975 144.074 14.3662 149.087 17.5882 147.347C20.8102 145.607 19.6338 140.152 16.1606 136.607Z" fill="#684300" stroke="#684300"/>
</svg>
