<svg width="1001" height="522" viewBox="0 0 1001 522" fill="none" xmlns="http://www.w3.org/2000/svg">
<g filter="url(#filter0_d)">
<rect x="610" y="370" width="88" height="88" fill="#FFF1E6"/>
</g>
<g filter="url(#filter1_d)">
<rect x="610" y="73" width="88" height="88" fill="black"/>
</g>
<g filter="url(#filter2_d)">
<rect x="610" y="172" width="88" height="88" fill="#FABC59"/>
</g>
<g filter="url(#filter3_d)">
<rect x="610" y="271" width="88" height="88" fill="#FFE2CC"/>
</g>
<path d="M780 181C785.05 179.756 790.079 178.64 795 177" stroke="black" stroke-linecap="round"/>
<path d="M782 185C786.419 184.9 792.225 184.517 796 182" stroke="black" stroke-linecap="round"/>
<path d="M788 172C790.754 178.649 794 184.743 794 192" stroke="black" stroke-linecap="round"/>
<path d="M783 176C787.113 182.417 791 188.234 791 196" stroke="black" stroke-linecap="round"/>
<path d="M708 215C712.727 201.93 731.388 196.822 742.889 192.167C752.169 188.411 761.812 184 772 184" stroke="black" stroke-linecap="round"/>
<path d="M707 208V215" stroke="black" stroke-linecap="round"/>
<path d="M707 215C709.128 214.521 710.355 213.987 712 213" stroke="black" stroke-linecap="round"/>
<path d="M804.618 188H803.358V178.004H808.944V179.11H804.618V182.652H808.678V183.758H804.618V188ZM816.616 188L815.412 184.906H811.45L810.26 188H808.986L812.892 177.962H814.026L817.918 188H816.616ZM813.914 180.762C813.886 180.687 813.84 180.552 813.774 180.356C813.709 180.16 813.644 179.959 813.578 179.754C813.522 179.539 813.476 179.376 813.438 179.264C813.373 179.553 813.298 179.838 813.214 180.118C813.13 180.389 813.06 180.603 813.004 180.762L811.87 183.786H815.034L813.914 180.762ZM822.142 178.004C823.392 178.004 824.335 178.191 824.97 178.564C825.614 178.928 825.936 179.567 825.936 180.482C825.936 181.07 825.772 181.56 825.446 181.952C825.119 182.335 824.648 182.582 824.032 182.694V182.764C824.452 182.829 824.83 182.951 825.166 183.128C825.511 183.305 825.782 183.557 825.978 183.884C826.174 184.211 826.272 184.635 826.272 185.158C826.272 186.063 825.959 186.763 825.334 187.258C824.718 187.753 823.873 188 822.8 188H819.286V178.004H822.142ZM822.394 182.26C823.252 182.26 823.84 182.125 824.158 181.854C824.475 181.574 824.634 181.163 824.634 180.622C824.634 180.071 824.438 179.679 824.046 179.446C823.663 179.203 823.047 179.082 822.198 179.082H820.546V182.26H822.394ZM820.546 183.31V186.936H822.562C823.448 186.936 824.064 186.763 824.41 186.418C824.755 186.073 824.928 185.62 824.928 185.06C824.928 184.537 824.746 184.117 824.382 183.8C824.027 183.473 823.388 183.31 822.464 183.31H820.546ZM832.675 178.97C831.602 178.97 830.757 179.329 830.141 180.048C829.525 180.767 829.217 181.751 829.217 183.002C829.217 184.243 829.502 185.228 830.071 185.956C830.65 186.675 831.513 187.034 832.661 187.034C833.1 187.034 833.515 186.997 833.907 186.922C834.299 186.847 834.682 186.754 835.055 186.642V187.734C834.682 187.874 834.295 187.977 833.893 188.042C833.501 188.107 833.03 188.14 832.479 188.14C831.462 188.14 830.613 187.93 829.931 187.51C829.25 187.09 828.737 186.493 828.391 185.718C828.055 184.943 827.887 184.033 827.887 182.988C827.887 181.98 828.069 181.093 828.433 180.328C828.807 179.553 829.353 178.951 830.071 178.522C830.79 178.083 831.663 177.864 832.689 177.864C833.744 177.864 834.663 178.06 835.447 178.452L834.943 179.516C834.635 179.376 834.29 179.25 833.907 179.138C833.534 179.026 833.123 178.97 832.675 178.97ZM839.729 181.868C840.756 181.868 841.572 182.125 842.179 182.638C842.786 183.151 843.089 183.875 843.089 184.808C843.089 185.844 842.758 186.661 842.095 187.258C841.442 187.846 840.527 188.14 839.351 188.14C838.838 188.14 838.352 188.093 837.895 188C837.447 187.907 837.069 187.771 836.761 187.594V186.432C837.097 186.637 837.503 186.801 837.979 186.922C838.464 187.034 838.926 187.09 839.365 187.09C840.102 187.09 840.695 186.917 841.143 186.572C841.6 186.217 841.829 185.671 841.829 184.934C841.829 184.281 841.628 183.781 841.227 183.436C840.826 183.081 840.191 182.904 839.323 182.904C839.062 182.904 838.763 182.927 838.427 182.974C838.091 183.021 837.82 183.067 837.615 183.114L836.999 182.722L837.377 178.004H842.389V179.124H838.427L838.189 182.022C838.348 181.994 838.562 181.961 838.833 181.924C839.104 181.887 839.402 181.868 839.729 181.868ZM851.171 182.274C851.171 182.993 851.105 183.702 850.975 184.402C850.853 185.093 850.625 185.723 850.289 186.292C849.962 186.852 849.495 187.3 848.889 187.636C848.291 187.972 847.521 188.14 846.579 188.14C846.392 188.14 846.173 188.126 845.921 188.098C845.678 188.079 845.477 188.047 845.319 188V186.95C845.683 187.071 846.093 187.132 846.551 187.132C847.204 187.132 847.741 187.025 848.161 186.81C848.59 186.595 848.931 186.306 849.183 185.942C849.435 185.569 849.617 185.139 849.729 184.654C849.841 184.159 849.906 183.641 849.925 183.1H849.841C849.635 183.417 849.337 183.693 848.945 183.926C848.562 184.15 848.067 184.262 847.461 184.262C846.602 184.262 845.907 184.001 845.375 183.478C844.852 182.946 844.591 182.199 844.591 181.238C844.591 180.538 844.721 179.936 844.983 179.432C845.253 178.928 845.627 178.541 846.103 178.27C846.579 177.999 847.139 177.864 847.783 177.864C848.417 177.864 848.991 178.027 849.505 178.354C850.018 178.671 850.424 179.157 850.723 179.81C851.021 180.454 851.171 181.275 851.171 182.274ZM847.783 178.9C847.204 178.9 846.728 179.091 846.355 179.474C845.991 179.857 845.809 180.44 845.809 181.224C845.809 181.868 845.963 182.377 846.271 182.75C846.588 183.114 847.073 183.296 847.727 183.296C848.175 183.296 848.562 183.207 848.889 183.03C849.215 182.843 849.467 182.61 849.645 182.33C849.831 182.05 849.925 181.761 849.925 181.462C849.925 181.061 849.845 180.664 849.687 180.272C849.528 179.88 849.29 179.553 848.973 179.292C848.655 179.031 848.259 178.9 847.783 178.9Z" fill="black"/>
<path d="M780 181C785.05 179.756 790.079 178.64 795 177" stroke="black" stroke-linecap="round"/>
<path d="M782 185C786.419 184.9 792.225 184.517 796 182" stroke="black" stroke-linecap="round"/>
<path d="M788 172C790.754 178.649 794 184.743 794 192" stroke="black" stroke-linecap="round"/>
<path d="M783 176C787.113 182.417 791 188.234 791 196" stroke="black" stroke-linecap="round"/>
<path d="M708 215C712.727 201.93 731.388 196.822 742.889 192.167C752.169 188.411 761.812 184 772 184" stroke="black" stroke-linecap="round"/>
<path d="M707 208V215" stroke="black" stroke-linecap="round"/>
<path d="M707 215C709.128 214.521 710.355 213.987 712 213" stroke="black" stroke-linecap="round"/>
<path d="M807.618 381H806.358V371.004H811.944V372.11H807.618V375.652H811.678V376.758H807.618V381ZM814.878 381H813.618V371.004H819.204V372.11H814.878V375.652H818.938V376.758H814.878V381ZM822.138 381H820.878V371.004H826.464V372.11H822.138V375.652H826.198V376.758H822.138V381ZM831.749 381H830.545V374.014C830.545 373.613 830.55 373.291 830.559 373.048C830.569 372.805 830.583 372.553 830.601 372.292C830.452 372.441 830.317 372.567 830.195 372.67C830.074 372.773 829.92 372.903 829.733 373.062L828.669 373.93L828.025 373.104L830.727 371.004H831.749V381ZM841.735 381H836.149V371.004H841.735V372.11H837.409V375.232H841.483V376.324H837.409V379.894H841.735V381ZM843.34 376.73C843.34 376.011 843.401 375.307 843.522 374.616C843.653 373.916 843.882 373.286 844.208 372.726C844.544 372.157 845.011 371.704 845.608 371.368C846.206 371.032 846.976 370.864 847.918 370.864C848.114 370.864 848.329 370.873 848.562 370.892C848.805 370.911 849.001 370.943 849.15 370.99V372.04C848.982 371.984 848.791 371.942 848.576 371.914C848.371 371.886 848.161 371.872 847.946 371.872C847.302 371.872 846.766 371.979 846.336 372.194C845.907 372.409 845.566 372.703 845.314 373.076C845.072 373.449 844.894 373.879 844.782 374.364C844.67 374.849 844.6 375.367 844.572 375.918H844.656C844.871 375.591 845.17 375.316 845.552 375.092C845.935 374.859 846.425 374.742 847.022 374.742C847.89 374.742 848.59 375.008 849.122 375.54C849.654 376.063 849.92 376.809 849.92 377.78C849.92 378.825 849.631 379.647 849.052 380.244C848.483 380.841 847.713 381.14 846.742 381.14C846.108 381.14 845.534 380.981 845.02 380.664C844.507 380.347 844.096 379.861 843.788 379.208C843.49 378.555 843.34 377.729 843.34 376.73ZM846.728 380.104C847.316 380.104 847.792 379.917 848.156 379.544C848.52 379.161 848.702 378.573 848.702 377.78C848.702 377.145 848.539 376.641 848.212 376.268C847.895 375.895 847.414 375.708 846.77 375.708C846.332 375.708 845.949 375.801 845.622 375.988C845.296 376.165 845.039 376.394 844.852 376.674C844.675 376.954 844.586 377.243 844.586 377.542C844.586 377.943 844.666 378.345 844.824 378.746C844.983 379.138 845.221 379.465 845.538 379.726C845.856 379.978 846.252 380.104 846.728 380.104Z" fill="black"/>
<path d="M780 181C785.05 179.756 790.079 178.64 795 177" stroke="black" stroke-linecap="round"/>
<path d="M782 185C786.419 184.9 792.225 184.517 796 182" stroke="black" stroke-linecap="round"/>
<path d="M788 172C790.754 178.649 794 184.743 794 192" stroke="black" stroke-linecap="round"/>
<path d="M783 176C787.113 182.417 791 188.234 791 196" stroke="black" stroke-linecap="round"/>
<path d="M708 215C712.727 201.93 731.388 196.822 742.889 192.167C752.169 188.411 761.812 184 772 184" stroke="black" stroke-linecap="round"/>
<path d="M777 376C782.05 374.756 787.079 373.64 792 372" stroke="black" stroke-linecap="round"/>
<path d="M779 380C783.419 379.9 789.225 379.517 793 377" stroke="black" stroke-linecap="round"/>
<path d="M785 367C787.754 373.649 791 379.743 791 387" stroke="black" stroke-linecap="round"/>
<path d="M780 371C784.113 377.417 788 383.234 788 391" stroke="black" stroke-linecap="round"/>
<path d="M705 410C709.727 396.93 728.388 391.822 739.889 387.167C749.169 383.411 758.812 379 769 379" stroke="black" stroke-linecap="round"/>
<path d="M704 403V410" stroke="black" stroke-linecap="round"/>
<path d="M704 410C706.128 409.521 707.355 408.987 709 408" stroke="black" stroke-linecap="round"/>
<path d="M777 376C782.05 374.756 787.079 373.64 792 372" stroke="black" stroke-linecap="round"/>
<path d="M779 380C783.419 379.9 789.225 379.517 793 377" stroke="black" stroke-linecap="round"/>
<path d="M785 367C787.754 373.649 791 379.743 791 387" stroke="black" stroke-linecap="round"/>
<path d="M780 371C784.113 377.417 788 383.234 788 391" stroke="black" stroke-linecap="round"/>
<path d="M705 410C709.727 396.93 728.388 391.822 739.889 387.167C749.169 383.411 758.812 379 769 379" stroke="black" stroke-linecap="round"/>
<path d="M704 403V410" stroke="black" stroke-linecap="round"/>
<path d="M704 410C706.128 409.521 707.355 408.987 709 408" stroke="black" stroke-linecap="round"/>
<path d="M777 376C782.05 374.756 787.079 373.64 792 372" stroke="black" stroke-linecap="round"/>
<path d="M779 380C783.419 379.9 789.225 379.517 793 377" stroke="black" stroke-linecap="round"/>
<path d="M785 367C787.754 373.649 791 379.743 791 387" stroke="black" stroke-linecap="round"/>
<path d="M780 371C784.113 377.417 788 383.234 788 391" stroke="black" stroke-linecap="round"/>
<path d="M705 410C709.727 396.93 728.388 391.822 739.889 387.167C749.169 383.411 758.812 379 769 379" stroke="black" stroke-linecap="round"/>
<path d="M779 281C784.05 279.756 789.079 278.64 794 277" stroke="black" stroke-linecap="round"/>
<path d="M781 285C785.419 284.9 791.225 284.517 795 282" stroke="black" stroke-linecap="round"/>
<path d="M787 272C789.754 278.649 793 284.743 793 292" stroke="black" stroke-linecap="round"/>
<path d="M782 276C786.113 282.417 790 288.234 790 296" stroke="black" stroke-linecap="round"/>
<path d="M707 315C711.727 301.93 730.388 296.822 741.889 292.167C751.169 288.411 760.812 284 771 284" stroke="black" stroke-linecap="round"/>
<path d="M779 281C784.05 279.756 789.079 278.64 794 277" stroke="black" stroke-linecap="round"/>
<path d="M781 285C785.419 284.9 791.225 284.517 795 282" stroke="black" stroke-linecap="round"/>
<path d="M787 272C789.754 278.649 793 284.743 793 292" stroke="black" stroke-linecap="round"/>
<path d="M782 276C786.113 282.417 790 288.234 790 296" stroke="black" stroke-linecap="round"/>
<path d="M707 315C711.727 301.93 730.388 296.822 741.889 292.167C751.169 288.411 760.812 284 771 284" stroke="black" stroke-linecap="round"/>
<path d="M779 281C784.05 279.756 789.079 278.64 794 277" stroke="black" stroke-linecap="round"/>
<path d="M781 285C785.419 284.9 791.225 284.517 795 282" stroke="black" stroke-linecap="round"/>
<path d="M787 272C789.754 278.649 793 284.743 793 292" stroke="black" stroke-linecap="round"/>
<path d="M782 276C786.113 282.417 790 288.234 790 296" stroke="black" stroke-linecap="round"/>
<path d="M707 315C711.727 301.93 730.388 296.822 741.889 292.167C751.169 288.411 760.812 284 771 284" stroke="black" stroke-linecap="round"/>
<path d="M705 308V315" stroke="black" stroke-linecap="round"/>
<path d="M705 315C707.128 314.521 708.355 313.987 710 313" stroke="black" stroke-linecap="round"/>
<path d="M805.618 288H804.358V278.004H809.944V279.11H805.618V282.652H809.678V283.758H805.618V288ZM812.878 288H811.618V278.004H817.204V279.11H812.878V282.652H816.938V283.758H812.878V288ZM824.464 288H818.878V278.004H824.464V279.11H820.138V282.232H824.212V283.324H820.138V286.894H824.464V288ZM832.579 288H825.971V286.978L828.589 284.332C829.093 283.828 829.517 283.38 829.863 282.988C830.208 282.596 830.469 282.213 830.647 281.84C830.824 281.457 830.913 281.042 830.913 280.594C830.913 280.043 830.749 279.628 830.423 279.348C830.096 279.059 829.671 278.914 829.149 278.914C828.663 278.914 828.234 278.998 827.861 279.166C827.497 279.334 827.123 279.567 826.741 279.866L826.083 279.04C826.475 278.713 826.923 278.438 827.427 278.214C827.94 277.981 828.514 277.864 829.149 277.864C830.082 277.864 830.819 278.102 831.361 278.578C831.902 279.045 832.173 279.693 832.173 280.524C832.173 281.047 832.065 281.537 831.851 281.994C831.636 282.451 831.337 282.904 830.955 283.352C830.572 283.791 830.124 284.262 829.611 284.766L827.525 286.824V286.88H832.579V288ZM838.953 278.97C837.879 278.97 837.035 279.329 836.419 280.048C835.803 280.767 835.495 281.751 835.495 283.002C835.495 284.243 835.779 285.228 836.349 285.956C836.927 286.675 837.791 287.034 838.939 287.034C839.377 287.034 839.793 286.997 840.185 286.922C840.577 286.847 840.959 286.754 841.333 286.642V287.734C840.959 287.874 840.572 287.977 840.171 288.042C839.779 288.107 839.307 288.14 838.757 288.14C837.739 288.14 836.89 287.93 836.209 287.51C835.527 287.09 835.014 286.493 834.669 285.718C834.333 284.943 834.165 284.033 834.165 282.988C834.165 281.98 834.347 281.093 834.711 280.328C835.084 279.553 835.63 278.951 836.349 278.522C837.067 278.083 837.94 277.864 838.967 277.864C840.021 277.864 840.941 278.06 841.725 278.452L841.221 279.516C840.913 279.376 840.567 279.25 840.185 279.138C839.811 279.026 839.401 278.97 838.953 278.97ZM847.525 278.97C846.451 278.97 845.607 279.329 844.991 280.048C844.375 280.767 844.067 281.751 844.067 283.002C844.067 284.243 844.351 285.228 844.921 285.956C845.499 286.675 846.363 287.034 847.511 287.034C847.949 287.034 848.365 286.997 848.757 286.922C849.149 286.847 849.531 286.754 849.905 286.642V287.734C849.531 287.874 849.144 287.977 848.743 288.042C848.351 288.107 847.879 288.14 847.329 288.14C846.311 288.14 845.462 287.93 844.781 287.51C844.099 287.09 843.586 286.493 843.241 285.718C842.905 284.943 842.737 284.033 842.737 282.988C842.737 281.98 842.919 281.093 843.283 280.328C843.656 279.553 844.202 278.951 844.921 278.522C845.639 278.083 846.512 277.864 847.539 277.864C848.593 277.864 849.513 278.06 850.297 278.452L849.793 279.516C849.485 279.376 849.139 279.25 848.757 279.138C848.383 279.026 847.973 278.97 847.525 278.97Z" fill="black"/>
<path d="M780 83C785.05 81.7558 790.079 80.6404 795 79" stroke="black" stroke-linecap="round"/>
<path d="M782 87C786.419 86.8996 792.225 86.5167 796 84" stroke="black" stroke-linecap="round"/>
<path d="M788 74C790.754 80.6492 794 86.7426 794 94" stroke="black" stroke-linecap="round"/>
<path d="M783 78C787.113 84.4166 791 90.2336 791 98" stroke="black" stroke-linecap="round"/>
<path d="M708 117C712.727 103.93 731.388 98.8216 742.889 94.1667C752.169 90.4105 761.812 86 772 86" stroke="black" stroke-linecap="round"/>
<path d="M707 110V117" stroke="black" stroke-linecap="round"/>
<path d="M707 117C709.128 116.521 710.355 115.987 712 115" stroke="black" stroke-linecap="round"/>
<path d="M809.322 84.988C809.322 86.0613 809.21 86.9853 808.986 87.76C808.762 88.5253 808.407 89.1133 807.922 89.524C807.437 89.9347 806.793 90.14 805.99 90.14C804.861 90.14 804.025 89.6873 803.484 88.782C802.952 87.8673 802.686 86.6027 802.686 84.988C802.686 83.9053 802.793 82.9813 803.008 82.216C803.232 81.4507 803.587 80.8673 804.072 80.466C804.557 80.0553 805.197 79.85 805.99 79.85C807.11 79.85 807.945 80.3027 808.496 81.208C809.047 82.104 809.322 83.364 809.322 84.988ZM803.918 84.988C803.918 86.36 804.072 87.3867 804.38 88.068C804.697 88.7493 805.234 89.09 805.99 89.09C806.737 89.09 807.269 88.754 807.586 88.082C807.913 87.4007 808.076 86.3693 808.076 84.988C808.076 83.6253 807.913 82.6033 807.586 81.922C807.269 81.2407 806.737 80.9 805.99 80.9C805.234 80.9 804.697 81.2407 804.38 81.922C804.072 82.6033 803.918 83.6253 803.918 84.988ZM817.334 84.988C817.334 86.0613 817.222 86.9853 816.998 87.76C816.774 88.5253 816.419 89.1133 815.934 89.524C815.448 89.9347 814.804 90.14 814.002 90.14C812.872 90.14 812.037 89.6873 811.496 88.782C810.964 87.8673 810.698 86.6027 810.698 84.988C810.698 83.9053 810.805 82.9813 811.02 82.216C811.244 81.4507 811.598 80.8673 812.084 80.466C812.569 80.0553 813.208 79.85 814.002 79.85C815.122 79.85 815.957 80.3027 816.508 81.208C817.058 82.104 817.334 83.364 817.334 84.988ZM811.93 84.988C811.93 86.36 812.084 87.3867 812.392 88.068C812.709 88.7493 813.246 89.09 814.002 89.09C814.748 89.09 815.28 88.754 815.598 88.082C815.924 87.4007 816.088 86.3693 816.088 84.988C816.088 83.6253 815.924 82.6033 815.598 81.922C815.28 81.2407 814.748 80.9 814.002 80.9C813.246 80.9 812.709 81.2407 812.392 81.922C812.084 82.6033 811.93 83.6253 811.93 84.988ZM825.345 84.988C825.345 86.0613 825.233 86.9853 825.009 87.76C824.785 88.5253 824.431 89.1133 823.945 89.524C823.46 89.9347 822.816 90.14 822.013 90.14C820.884 90.14 820.049 89.6873 819.507 88.782C818.975 87.8673 818.709 86.6027 818.709 84.988C818.709 83.9053 818.817 82.9813 819.031 82.216C819.255 81.4507 819.61 80.8673 820.095 80.466C820.581 80.0553 821.22 79.85 822.013 79.85C823.133 79.85 823.969 80.3027 824.519 81.208C825.07 82.104 825.345 83.364 825.345 84.988ZM819.941 84.988C819.941 86.36 820.095 87.3867 820.403 88.068C820.721 88.7493 821.257 89.09 822.013 89.09C822.76 89.09 823.292 88.754 823.609 88.082C823.936 87.4007 824.099 86.3693 824.099 84.988C824.099 83.6253 823.936 82.6033 823.609 81.922C823.292 81.2407 822.76 80.9 822.013 80.9C821.257 80.9 820.721 81.2407 820.403 81.922C820.095 82.6033 819.941 83.6253 819.941 84.988ZM833.357 84.988C833.357 86.0613 833.245 86.9853 833.021 87.76C832.797 88.5253 832.442 89.1133 831.957 89.524C831.472 89.9347 830.828 90.14 830.025 90.14C828.896 90.14 828.06 89.6873 827.519 88.782C826.987 87.8673 826.721 86.6027 826.721 84.988C826.721 83.9053 826.828 82.9813 827.043 82.216C827.267 81.4507 827.622 80.8673 828.107 80.466C828.592 80.0553 829.232 79.85 830.025 79.85C831.145 79.85 831.98 80.3027 832.531 81.208C833.082 82.104 833.357 83.364 833.357 84.988ZM827.953 84.988C827.953 86.36 828.107 87.3867 828.415 88.068C828.732 88.7493 829.269 89.09 830.025 89.09C830.772 89.09 831.304 88.754 831.621 88.082C831.948 87.4007 832.111 86.3693 832.111 84.988C832.111 83.6253 831.948 82.6033 831.621 81.922C831.304 81.2407 830.772 80.9 830.025 80.9C829.269 80.9 828.732 81.2407 828.415 81.922C828.107 82.6033 827.953 83.6253 827.953 84.988ZM841.369 84.988C841.369 86.0613 841.257 86.9853 841.033 87.76C840.809 88.5253 840.454 89.1133 839.969 89.524C839.484 89.9347 838.84 90.14 838.037 90.14C836.908 90.14 836.072 89.6873 835.531 88.782C834.999 87.8673 834.733 86.6027 834.733 84.988C834.733 83.9053 834.84 82.9813 835.055 82.216C835.279 81.4507 835.634 80.8673 836.119 80.466C836.604 80.0553 837.244 79.85 838.037 79.85C839.157 79.85 839.992 80.3027 840.543 81.208C841.094 82.104 841.369 83.364 841.369 84.988ZM835.965 84.988C835.965 86.36 836.119 87.3867 836.427 88.068C836.744 88.7493 837.281 89.09 838.037 89.09C838.784 89.09 839.316 88.754 839.633 88.082C839.96 87.4007 840.123 86.3693 840.123 84.988C840.123 83.6253 839.96 82.6033 839.633 81.922C839.316 81.2407 838.784 80.9 838.037 80.9C837.281 80.9 836.744 81.2407 836.427 81.922C836.119 82.6033 835.965 83.6253 835.965 84.988ZM849.381 84.988C849.381 86.0613 849.269 86.9853 849.045 87.76C848.821 88.5253 848.466 89.1133 847.981 89.524C847.495 89.9347 846.851 90.14 846.049 90.14C844.919 90.14 844.084 89.6873 843.543 88.782C843.011 87.8673 842.745 86.6027 842.745 84.988C842.745 83.9053 842.852 82.9813 843.067 82.216C843.291 81.4507 843.645 80.8673 844.131 80.466C844.616 80.0553 845.255 79.85 846.049 79.85C847.169 79.85 848.004 80.3027 848.555 81.208C849.105 82.104 849.381 83.364 849.381 84.988ZM843.977 84.988C843.977 86.36 844.131 87.3867 844.439 88.068C844.756 88.7493 845.293 89.09 846.049 89.09C846.795 89.09 847.327 88.754 847.645 88.082C847.971 87.4007 848.135 86.3693 848.135 84.988C848.135 83.6253 847.971 82.6033 847.645 81.922C847.327 81.2407 846.795 80.9 846.049 80.9C845.293 80.9 844.756 81.2407 844.439 81.922C844.131 82.6033 843.977 83.6253 843.977 84.988Z" fill="black"/>
<path d="M371.116 115.004C372.357 115.004 373.272 115.242 373.86 115.718C374.457 116.185 374.756 116.894 374.756 117.846C374.756 118.378 374.658 118.821 374.462 119.176C374.266 119.531 374.014 119.815 373.706 120.03C373.407 120.235 373.09 120.399 372.754 120.52L375.498 125H374.028L371.606 120.87H369.618V125H368.358V115.004H371.116ZM371.046 116.096H369.618V119.806H371.116C371.928 119.806 372.521 119.647 372.894 119.33C373.267 119.003 373.454 118.527 373.454 117.902C373.454 117.249 373.258 116.787 372.866 116.516C372.474 116.236 371.867 116.096 371.046 116.096ZM383.423 121.234C383.423 122.475 383.106 123.437 382.471 124.118C381.846 124.799 380.996 125.14 379.923 125.14C379.26 125.14 378.668 124.991 378.145 124.692C377.632 124.384 377.226 123.941 376.927 123.362C376.628 122.774 376.479 122.065 376.479 121.234C376.479 119.993 376.792 119.036 377.417 118.364C378.042 117.692 378.892 117.356 379.965 117.356C380.646 117.356 381.244 117.51 381.757 117.818C382.28 118.117 382.686 118.555 382.975 119.134C383.274 119.703 383.423 120.403 383.423 121.234ZM377.753 121.234C377.753 122.121 377.926 122.825 378.271 123.348C378.626 123.861 379.186 124.118 379.951 124.118C380.707 124.118 381.262 123.861 381.617 123.348C381.972 122.825 382.149 122.121 382.149 121.234C382.149 120.347 381.972 119.652 381.617 119.148C381.262 118.644 380.702 118.392 379.937 118.392C379.172 118.392 378.616 118.644 378.271 119.148C377.926 119.652 377.753 120.347 377.753 121.234ZM386.608 116.95C386.608 117.267 386.598 117.566 386.58 117.846C386.57 118.117 386.556 118.331 386.538 118.49H386.608C386.822 118.173 387.116 117.907 387.49 117.692C387.863 117.477 388.344 117.37 388.932 117.37C389.865 117.37 390.612 117.697 391.172 118.35C391.741 118.994 392.026 119.96 392.026 121.248C392.026 122.536 391.741 123.507 391.172 124.16C390.602 124.813 389.856 125.14 388.932 125.14C388.344 125.14 387.863 125.033 387.49 124.818C387.116 124.603 386.822 124.347 386.608 124.048H386.51L386.258 125H385.376V114.36H386.608V116.95ZM388.722 118.392C387.928 118.392 387.378 118.621 387.07 119.078C386.762 119.535 386.608 120.245 386.608 121.206V121.262C386.608 122.186 386.757 122.895 387.056 123.39C387.364 123.875 387.928 124.118 388.75 124.118C389.422 124.118 389.921 123.871 390.248 123.376C390.584 122.881 390.752 122.167 390.752 121.234C390.752 119.339 390.075 118.392 388.722 118.392ZM400.513 121.234C400.513 122.475 400.195 123.437 399.561 124.118C398.935 124.799 398.086 125.14 397.013 125.14C396.35 125.14 395.757 124.991 395.235 124.692C394.721 124.384 394.315 123.941 394.017 123.362C393.718 122.774 393.569 122.065 393.569 121.234C393.569 119.993 393.881 119.036 394.507 118.364C395.132 117.692 395.981 117.356 397.055 117.356C397.736 117.356 398.333 117.51 398.847 117.818C399.369 118.117 399.775 118.555 400.065 119.134C400.363 119.703 400.513 120.403 400.513 121.234ZM394.843 121.234C394.843 122.121 395.015 122.825 395.361 123.348C395.715 123.861 396.275 124.118 397.041 124.118C397.797 124.118 398.352 123.861 398.707 123.348C399.061 122.825 399.239 122.121 399.239 121.234C399.239 120.347 399.061 119.652 398.707 119.148C398.352 118.644 397.792 118.392 397.027 118.392C396.261 118.392 395.706 118.644 395.361 119.148C395.015 119.652 394.843 120.347 394.843 121.234ZM404.971 124.132C405.158 124.132 405.349 124.118 405.545 124.09C405.741 124.053 405.9 124.015 406.021 123.978V124.916C405.891 124.981 405.704 125.033 405.461 125.07C405.219 125.117 404.985 125.14 404.761 125.14C404.369 125.14 404.005 125.075 403.669 124.944C403.343 124.804 403.077 124.566 402.871 124.23C402.666 123.894 402.563 123.423 402.563 122.816V118.448H401.499V117.86L402.577 117.37L403.067 115.774H403.795V117.496H405.965V118.448H403.795V122.788C403.795 123.245 403.903 123.586 404.117 123.81C404.341 124.025 404.626 124.132 404.971 124.132ZM414.048 121.234C414.048 122.475 413.731 123.437 413.096 124.118C412.471 124.799 411.621 125.14 410.548 125.14C409.885 125.14 409.293 124.991 408.77 124.692C408.257 124.384 407.851 123.941 407.552 123.362C407.253 122.774 407.104 122.065 407.104 121.234C407.104 119.993 407.417 119.036 408.042 118.364C408.667 117.692 409.517 117.356 410.59 117.356C411.271 117.356 411.869 117.51 412.382 117.818C412.905 118.117 413.311 118.555 413.6 119.134C413.899 119.703 414.048 120.403 414.048 121.234ZM408.378 121.234C408.378 122.121 408.551 122.825 408.896 123.348C409.251 123.861 409.811 124.118 410.576 124.118C411.332 124.118 411.887 123.861 412.242 123.348C412.597 122.825 412.774 122.121 412.774 121.234C412.774 120.347 412.597 119.652 412.242 119.148C411.887 118.644 411.327 118.392 410.562 118.392C409.797 118.392 409.241 118.644 408.896 119.148C408.551 119.652 408.378 120.347 408.378 121.234Z" fill="black"/>
<path d="M293 156C297.727 142.93 316.388 137.822 327.889 133.167C337.169 129.411 346.812 125 357 125" stroke="black" stroke-linecap="round"/>
<path d="M293 149V156" stroke="black" stroke-linecap="round"/>
<path d="M293 156C295.128 155.521 296.355 154.987 298 154" stroke="black" stroke-linecap="round"/>
<path d="M375.282 340H373.812L368.464 331.698H368.408C368.427 332.025 368.45 332.431 368.478 332.916C368.506 333.401 368.52 333.901 368.52 334.414V340H367.358V330.004H368.814L374.148 338.278H374.204C374.195 338.129 374.181 337.905 374.162 337.606C374.153 337.307 374.139 336.981 374.12 336.626C374.111 336.271 374.106 335.945 374.106 335.646V330.004H375.282V340ZM384.351 336.234C384.351 337.475 384.033 338.437 383.399 339.118C382.773 339.799 381.924 340.14 380.851 340.14C380.188 340.14 379.595 339.991 379.073 339.692C378.559 339.384 378.153 338.941 377.855 338.362C377.556 337.774 377.407 337.065 377.407 336.234C377.407 334.993 377.719 334.036 378.345 333.364C378.97 332.692 379.819 332.356 380.893 332.356C381.574 332.356 382.171 332.51 382.685 332.818C383.207 333.117 383.613 333.555 383.903 334.134C384.201 334.703 384.351 335.403 384.351 336.234ZM378.681 336.234C378.681 337.121 378.853 337.825 379.199 338.348C379.553 338.861 380.113 339.118 380.879 339.118C381.635 339.118 382.19 338.861 382.545 338.348C382.899 337.825 383.077 337.121 383.077 336.234C383.077 335.347 382.899 334.652 382.545 334.148C382.19 333.644 381.63 333.392 380.865 333.392C380.099 333.392 379.544 333.644 379.199 334.148C378.853 334.652 378.681 335.347 378.681 336.234ZM388.809 339.132C388.996 339.132 389.187 339.118 389.383 339.09C389.579 339.053 389.738 339.015 389.859 338.978V339.916C389.729 339.981 389.542 340.033 389.299 340.07C389.057 340.117 388.823 340.14 388.599 340.14C388.207 340.14 387.843 340.075 387.507 339.944C387.181 339.804 386.915 339.566 386.709 339.23C386.504 338.894 386.401 338.423 386.401 337.816V333.448H385.337V332.86L386.415 332.37L386.905 330.774H387.633V332.496H389.803V333.448H387.633V337.788C387.633 338.245 387.741 338.586 387.955 338.81C388.179 339.025 388.464 339.132 388.809 339.132ZM397.886 336.234C397.886 337.475 397.569 338.437 396.934 339.118C396.309 339.799 395.459 340.14 394.386 340.14C393.723 340.14 393.131 339.991 392.608 339.692C392.095 339.384 391.689 338.941 391.39 338.362C391.091 337.774 390.942 337.065 390.942 336.234C390.942 334.993 391.255 334.036 391.88 333.364C392.505 332.692 393.355 332.356 394.428 332.356C395.109 332.356 395.707 332.51 396.22 332.818C396.743 333.117 397.149 333.555 397.438 334.134C397.737 334.703 397.886 335.403 397.886 336.234ZM392.216 336.234C392.216 337.121 392.389 337.825 392.734 338.348C393.089 338.861 393.649 339.118 394.414 339.118C395.17 339.118 395.725 338.861 396.08 338.348C396.435 337.825 396.612 337.121 396.612 336.234C396.612 335.347 396.435 334.652 396.08 334.148C395.725 333.644 395.165 333.392 394.4 333.392C393.635 333.392 393.079 333.644 392.734 334.148C392.389 334.652 392.216 335.347 392.216 336.234ZM409.313 337.326C409.313 338.213 408.991 338.903 408.347 339.398C407.703 339.893 406.835 340.14 405.743 340.14C405.183 340.14 404.665 340.098 404.189 340.014C403.713 339.93 403.316 339.813 402.999 339.664V338.46C403.335 338.609 403.75 338.745 404.245 338.866C404.749 338.987 405.267 339.048 405.799 339.048C406.546 339.048 407.106 338.903 407.479 338.614C407.862 338.325 408.053 337.933 408.053 337.438C408.053 337.111 407.983 336.836 407.843 336.612C407.703 336.388 407.46 336.183 407.115 335.996C406.779 335.8 406.308 335.595 405.701 335.38C404.852 335.072 404.208 334.694 403.769 334.246C403.34 333.798 403.125 333.187 403.125 332.412C403.125 331.88 403.26 331.427 403.531 331.054C403.802 330.671 404.175 330.377 404.651 330.172C405.136 329.967 405.692 329.864 406.317 329.864C406.868 329.864 407.372 329.915 407.829 330.018C408.286 330.121 408.702 330.256 409.075 330.424L408.683 331.502C408.338 331.353 407.96 331.227 407.549 331.124C407.148 331.021 406.728 330.97 406.289 330.97C405.664 330.97 405.192 331.105 404.875 331.376C404.558 331.637 404.399 331.987 404.399 332.426C404.399 332.762 404.469 333.042 404.609 333.266C404.749 333.49 404.978 333.691 405.295 333.868C405.612 334.045 406.042 334.237 406.583 334.442C407.171 334.657 407.666 334.89 408.067 335.142C408.478 335.385 408.786 335.679 408.991 336.024C409.206 336.369 409.313 336.803 409.313 337.326ZM414.057 332.356C414.701 332.356 415.251 332.496 415.709 332.776C416.175 333.056 416.53 333.453 416.773 333.966C417.025 334.47 417.151 335.063 417.151 335.744V336.486H412.013C412.031 337.335 412.246 337.984 412.657 338.432C413.077 338.871 413.66 339.09 414.407 339.09C414.883 339.09 415.303 339.048 415.667 338.964C416.04 338.871 416.423 338.74 416.815 338.572V339.65C416.432 339.818 416.054 339.939 415.681 340.014C415.307 340.098 414.864 340.14 414.351 340.14C413.641 340.14 413.011 339.995 412.461 339.706C411.919 339.417 411.495 338.987 411.187 338.418C410.888 337.839 410.739 337.135 410.739 336.304C410.739 335.483 410.874 334.778 411.145 334.19C411.425 333.602 411.812 333.149 412.307 332.832C412.811 332.515 413.394 332.356 414.057 332.356ZM414.043 333.364C413.455 333.364 412.988 333.555 412.643 333.938C412.307 334.311 412.106 334.834 412.041 335.506H415.863C415.853 334.871 415.704 334.358 415.415 333.966C415.125 333.565 414.668 333.364 414.043 333.364ZM422.561 332.356C422.701 332.356 422.85 332.365 423.009 332.384C423.177 332.393 423.322 332.412 423.443 332.44L423.289 333.574C423.168 333.546 423.032 333.523 422.883 333.504C422.743 333.485 422.608 333.476 422.477 333.476C422.094 333.476 421.735 333.583 421.399 333.798C421.063 334.003 420.792 334.297 420.587 334.68C420.391 335.053 420.293 335.492 420.293 335.996V340H419.061V332.496H420.069L420.209 333.868H420.265C420.508 333.457 420.82 333.103 421.203 332.804C421.586 332.505 422.038 332.356 422.561 332.356ZM425.474 329.682C425.661 329.682 425.824 329.747 425.964 329.878C426.114 329.999 426.188 330.195 426.188 330.466C426.188 330.727 426.114 330.923 425.964 331.054C425.824 331.185 425.661 331.25 425.474 331.25C425.269 331.25 425.096 331.185 424.956 331.054C424.816 330.923 424.746 330.727 424.746 330.466C424.746 330.195 424.816 329.999 424.956 329.878C425.096 329.747 425.269 329.682 425.474 329.682ZM426.076 332.496V340H424.844V332.496H426.076ZM431.912 333.448H430.022V340H428.79V333.448H427.474V332.874L428.79 332.454V332.02C428.79 331.049 429.004 330.354 429.434 329.934C429.863 329.505 430.46 329.29 431.226 329.29C431.524 329.29 431.795 329.318 432.038 329.374C432.29 329.421 432.504 329.477 432.682 329.542L432.36 330.508C432.21 330.461 432.038 330.415 431.842 330.368C431.646 330.321 431.445 330.298 431.24 330.298C430.829 330.298 430.521 330.438 430.316 330.718C430.12 330.989 430.022 331.418 430.022 332.006V332.496H431.912V333.448ZM439.717 330.004C441.024 330.004 441.976 330.261 442.573 330.774C443.17 331.287 443.469 332.011 443.469 332.944C443.469 333.495 443.343 334.013 443.091 334.498C442.848 334.974 442.433 335.361 441.845 335.66C441.266 335.959 440.478 336.108 439.479 336.108H438.331V340H437.071V330.004H439.717ZM439.605 331.082H438.331V335.03H439.339C440.291 335.03 441 334.876 441.467 334.568C441.934 334.26 442.167 333.737 442.167 333C442.167 332.356 441.962 331.875 441.551 331.558C441.14 331.241 440.492 331.082 439.605 331.082ZM444.133 342.66C443.909 342.66 443.713 342.641 443.545 342.604C443.377 342.576 443.228 342.534 443.097 342.478V341.414C443.247 341.451 443.405 341.484 443.573 341.512C443.741 341.54 443.919 341.554 444.105 341.554C444.339 341.554 444.558 341.507 444.763 341.414C444.978 341.321 445.151 341.157 445.281 340.924C445.412 340.691 445.477 340.364 445.477 339.944V330.004H446.737V339.846C446.737 340.807 446.499 341.517 446.023 341.974C445.547 342.431 444.917 342.66 444.133 342.66Z" fill="black"/>
<path d="M292 371C296.727 357.93 315.388 352.822 326.889 348.167C336.169 344.411 345.812 340 356 340" stroke="black" stroke-linecap="round"/>
<path d="M291 364V371" stroke="black" stroke-linecap="round"/>
<path d="M291 371C293.128 370.521 294.355 369.987 296 369" stroke="black" stroke-linecap="round"/>
<path d="M371.698 231.722H375.156V236.622C374.615 236.799 374.069 236.93 373.518 237.014C372.967 237.098 372.342 237.14 371.642 237.14C370.606 237.14 369.733 236.935 369.024 236.524C368.315 236.104 367.773 235.511 367.4 234.746C367.036 233.971 366.854 233.057 366.854 232.002C366.854 230.957 367.059 230.051 367.47 229.286C367.881 228.521 368.469 227.928 369.234 227.508C370.009 227.079 370.942 226.864 372.034 226.864C372.594 226.864 373.121 226.915 373.616 227.018C374.12 227.121 374.587 227.265 375.016 227.452L374.54 228.544C374.185 228.385 373.784 228.25 373.336 228.138C372.897 228.026 372.44 227.97 371.964 227.97C370.769 227.97 369.836 228.329 369.164 229.048C368.501 229.767 368.17 230.751 368.17 232.002C368.17 232.795 368.296 233.5 368.548 234.116C368.809 234.723 369.215 235.199 369.766 235.544C370.317 235.88 371.04 236.048 371.936 236.048C372.375 236.048 372.748 236.025 373.056 235.978C373.364 235.931 373.644 235.875 373.896 235.81V232.842H371.698V231.722ZM380.876 229.356C381.016 229.356 381.165 229.365 381.324 229.384C381.492 229.393 381.636 229.412 381.758 229.44L381.604 230.574C381.482 230.546 381.347 230.523 381.198 230.504C381.058 230.485 380.922 230.476 380.792 230.476C380.409 230.476 380.05 230.583 379.714 230.798C379.378 231.003 379.107 231.297 378.902 231.68C378.706 232.053 378.608 232.492 378.608 232.996V237H377.376V229.496H378.384L378.524 230.868H378.58C378.822 230.457 379.135 230.103 379.518 229.804C379.9 229.505 380.353 229.356 380.876 229.356ZM385.783 229.356C386.427 229.356 386.978 229.496 387.435 229.776C387.902 230.056 388.257 230.453 388.499 230.966C388.751 231.47 388.877 232.063 388.877 232.744V233.486H383.739C383.758 234.335 383.973 234.984 384.383 235.432C384.803 235.871 385.387 236.09 386.133 236.09C386.609 236.09 387.029 236.048 387.393 235.964C387.767 235.871 388.149 235.74 388.541 235.572V236.65C388.159 236.818 387.781 236.939 387.407 237.014C387.034 237.098 386.591 237.14 386.077 237.14C385.368 237.14 384.738 236.995 384.187 236.706C383.646 236.417 383.221 235.987 382.913 235.418C382.615 234.839 382.465 234.135 382.465 233.304C382.465 232.483 382.601 231.778 382.871 231.19C383.151 230.602 383.539 230.149 384.033 229.832C384.537 229.515 385.121 229.356 385.783 229.356ZM385.769 230.364C385.181 230.364 384.715 230.555 384.369 230.938C384.033 231.311 383.833 231.834 383.767 232.506H387.589C387.58 231.871 387.431 231.358 387.141 230.966C386.852 230.565 386.395 230.364 385.769 230.364ZM393.63 229.37C394.544 229.37 395.221 229.571 395.66 229.972C396.098 230.373 396.318 231.013 396.318 231.89V237H395.422L395.184 235.936H395.128C394.801 236.347 394.456 236.65 394.092 236.846C393.737 237.042 393.242 237.14 392.608 237.14C391.926 237.14 391.362 236.963 390.914 236.608C390.466 236.244 390.242 235.679 390.242 234.914C390.242 234.167 390.536 233.593 391.124 233.192C391.712 232.781 392.617 232.557 393.84 232.52L395.114 232.478V232.03C395.114 231.405 394.978 230.971 394.708 230.728C394.437 230.485 394.054 230.364 393.56 230.364C393.168 230.364 392.794 230.425 392.44 230.546C392.085 230.658 391.754 230.789 391.446 230.938L391.068 230.014C391.394 229.837 391.782 229.687 392.23 229.566C392.678 229.435 393.144 229.37 393.63 229.37ZM393.994 233.374C393.06 233.411 392.412 233.561 392.048 233.822C391.693 234.083 391.516 234.452 391.516 234.928C391.516 235.348 391.642 235.656 391.894 235.852C392.155 236.048 392.486 236.146 392.888 236.146C393.522 236.146 394.05 235.973 394.47 235.628C394.89 235.273 395.1 234.732 395.1 234.004V233.332L393.994 233.374ZM401.141 236.132C401.328 236.132 401.519 236.118 401.715 236.09C401.911 236.053 402.07 236.015 402.191 235.978V236.916C402.061 236.981 401.874 237.033 401.631 237.07C401.389 237.117 401.155 237.14 400.931 237.14C400.539 237.14 400.175 237.075 399.839 236.944C399.513 236.804 399.247 236.566 399.041 236.23C398.836 235.894 398.733 235.423 398.733 234.816V230.448H397.669V229.86L398.747 229.37L399.237 227.774H399.965V229.496H402.135V230.448H399.965V234.788C399.965 235.245 400.073 235.586 400.287 235.81C400.511 236.025 400.796 236.132 401.141 236.132ZM414.541 227.004L410.971 237H409.711L406.141 227.004H407.457L409.711 233.416C409.86 233.827 409.986 234.214 410.089 234.578C410.191 234.933 410.275 235.273 410.341 235.6C410.406 235.273 410.49 234.928 410.593 234.564C410.695 234.2 410.821 233.808 410.971 233.388L413.211 227.004H414.541ZM416.355 226.682C416.542 226.682 416.705 226.747 416.845 226.878C416.994 226.999 417.069 227.195 417.069 227.466C417.069 227.727 416.994 227.923 416.845 228.054C416.705 228.185 416.542 228.25 416.355 228.25C416.15 228.25 415.977 228.185 415.837 228.054C415.697 227.923 415.627 227.727 415.627 227.466C415.627 227.195 415.697 226.999 415.837 226.878C415.977 226.747 416.15 226.682 416.355 226.682ZM416.957 229.496V237H415.725V229.496H416.957ZM420.567 228.95C420.567 229.267 420.557 229.566 420.539 229.846C420.529 230.117 420.515 230.331 420.497 230.49H420.567C420.781 230.173 421.075 229.907 421.449 229.692C421.822 229.477 422.303 229.37 422.891 229.37C423.824 229.37 424.571 229.697 425.131 230.35C425.7 230.994 425.985 231.96 425.985 233.248C425.985 234.536 425.7 235.507 425.131 236.16C424.561 236.813 423.815 237.14 422.891 237.14C422.303 237.14 421.822 237.033 421.449 236.818C421.075 236.603 420.781 236.347 420.567 236.048H420.469L420.217 237H419.335V226.36H420.567V228.95ZM422.681 230.392C421.887 230.392 421.337 230.621 421.029 231.078C420.721 231.535 420.567 232.245 420.567 233.206V233.262C420.567 234.186 420.716 234.895 421.015 235.39C421.323 235.875 421.887 236.118 422.709 236.118C423.381 236.118 423.88 235.871 424.207 235.376C424.543 234.881 424.711 234.167 424.711 233.234C424.711 231.339 424.034 230.392 422.681 230.392ZM430.846 229.356C431.49 229.356 432.04 229.496 432.498 229.776C432.964 230.056 433.319 230.453 433.562 230.966C433.814 231.47 433.94 232.063 433.94 232.744V233.486H428.802C428.82 234.335 429.035 234.984 429.446 235.432C429.866 235.871 430.449 236.09 431.196 236.09C431.672 236.09 432.092 236.048 432.456 235.964C432.829 235.871 433.212 235.74 433.604 235.572V236.65C433.221 236.818 432.843 236.939 432.47 237.014C432.096 237.098 431.653 237.14 431.14 237.14C430.43 237.14 429.8 236.995 429.25 236.706C428.708 236.417 428.284 235.987 427.976 235.418C427.677 234.839 427.528 234.135 427.528 233.304C427.528 232.483 427.663 231.778 427.934 231.19C428.214 230.602 428.601 230.149 429.096 229.832C429.6 229.515 430.183 229.356 430.846 229.356ZM430.832 230.364C430.244 230.364 429.777 230.555 429.432 230.938C429.096 231.311 428.895 231.834 428.83 232.506H432.652C432.642 231.871 432.493 231.358 432.204 230.966C431.914 230.565 431.457 230.364 430.832 230.364ZM440.736 234.928C440.736 235.656 440.465 236.207 439.924 236.58C439.383 236.953 438.655 237.14 437.74 237.14C437.217 237.14 436.765 237.098 436.382 237.014C436.009 236.93 435.677 236.813 435.388 236.664V235.544C435.687 235.693 436.046 235.833 436.466 235.964C436.895 236.085 437.329 236.146 437.768 236.146C438.393 236.146 438.846 236.048 439.126 235.852C439.406 235.647 439.546 235.376 439.546 235.04C439.546 234.853 439.495 234.685 439.392 234.536C439.289 234.387 439.103 234.237 438.832 234.088C438.571 233.939 438.193 233.771 437.698 233.584C437.213 233.397 436.797 233.211 436.452 233.024C436.107 232.837 435.841 232.613 435.654 232.352C435.467 232.091 435.374 231.755 435.374 231.344C435.374 230.709 435.631 230.219 436.144 229.874C436.667 229.529 437.348 229.356 438.188 229.356C438.645 229.356 439.07 229.403 439.462 229.496C439.863 229.58 440.237 229.701 440.582 229.86L440.162 230.84C439.845 230.709 439.513 230.597 439.168 230.504C438.823 230.411 438.468 230.364 438.104 230.364C437.6 230.364 437.213 230.448 436.942 230.616C436.681 230.775 436.55 230.994 436.55 231.274C436.55 231.479 436.611 231.657 436.732 231.806C436.853 231.946 437.054 232.086 437.334 232.226C437.623 232.357 438.006 232.515 438.482 232.702C438.958 232.879 439.364 233.061 439.7 233.248C440.036 233.435 440.293 233.663 440.47 233.934C440.647 234.195 440.736 234.527 440.736 234.928Z" fill="black"/>
<path d="M292 268C296.727 254.93 315.388 249.822 326.889 245.167C336.169 241.411 345.812 237 356 237" stroke="black" stroke-linecap="round"/>
<path d="M291 261V268" stroke="black" stroke-linecap="round"/>
<path d="M291 268C293.128 267.521 294.355 266.987 296 266" stroke="black" stroke-linecap="round"/>
<path d="M166.636 158.959H146.069V216H137.676V158.959H117.153V152.016H166.636V158.959ZM183.687 216H175.557V168.451H183.687V216ZM174.897 155.839C174.897 154.521 175.293 153.407 176.084 152.499C176.904 151.591 178.105 151.137 179.688 151.137C181.27 151.137 182.471 151.591 183.291 152.499C184.111 153.407 184.521 154.521 184.521 155.839C184.521 157.157 184.111 158.256 183.291 159.135C182.471 160.014 181.27 160.453 179.688 160.453C178.105 160.453 176.904 160.014 176.084 159.135C175.293 158.256 174.897 157.157 174.897 155.839ZM207.769 156.938V168.451H216.646V174.735H207.769V204.223C207.769 206.127 208.164 207.562 208.955 208.529C209.746 209.467 211.094 209.936 212.998 209.936C213.936 209.936 215.225 209.76 216.865 209.408V216C214.727 216.586 212.646 216.879 210.625 216.879C206.992 216.879 204.253 215.78 202.407 213.583C200.562 211.386 199.639 208.266 199.639 204.223V174.735H190.981V168.451H199.639V156.938H207.769ZM249.165 175.746C247.935 175.541 246.602 175.438 245.166 175.438C239.834 175.438 236.216 177.709 234.312 182.25V216H226.182V168.451H234.092L234.224 173.944C236.89 169.696 240.669 167.572 245.562 167.572C247.144 167.572 248.345 167.777 249.165 168.188V175.746ZM275.532 216.879C269.087 216.879 263.843 214.77 259.8 210.551C255.757 206.303 253.735 200.634 253.735 193.544V192.05C253.735 187.333 254.629 183.129 256.416 179.438C258.232 175.717 260.752 172.816 263.975 170.736C267.227 168.627 270.742 167.572 274.521 167.572C280.703 167.572 285.508 169.608 288.936 173.681C292.363 177.753 294.077 183.583 294.077 191.171V194.555H261.865C261.982 199.242 263.345 203.036 265.952 205.937C268.589 208.808 271.929 210.243 275.972 210.243C278.843 210.243 281.274 209.657 283.267 208.485C285.259 207.313 287.002 205.761 288.496 203.827L293.462 207.694C289.478 213.817 283.501 216.879 275.532 216.879ZM274.521 174.252C271.24 174.252 268.486 175.453 266.26 177.855C264.033 180.229 262.656 183.568 262.129 187.875H285.947V187.26C285.713 183.129 284.6 179.936 282.607 177.68C280.615 175.395 277.92 174.252 274.521 174.252Z" fill="black"/>
<path d="M188.37 261.04C186.27 261.04 183.913 261.927 181.3 263.7C177.847 266.08 174.767 269.23 172.06 273.15C169.353 277.07 167.3 281.48 165.9 286.38C165.06 289.227 164.64 291.7 164.64 293.8C164.64 299.213 166.133 303.18 169.12 305.7C170.987 307.24 173.04 308.01 175.28 308.01C179.947 308.01 184.59 306.26 189.21 302.76C192.197 300.473 194.787 297.907 196.98 295.06C201.787 288.713 204.19 281.923 204.19 274.69C204.19 269.743 202.907 265.357 200.34 261.53C197.12 256.723 192.547 253.713 186.62 252.5C184.8 252.08 183.003 251.87 181.23 251.87C179.457 251.87 177.753 251.987 176.12 252.22C170.753 252.92 166.927 255.23 164.64 259.15C163.147 261.623 162.4 264.4 162.4 267.48C162.4 269.3 162.657 271.237 163.17 273.29C163.357 274.083 163.24 274.573 162.82 274.76C162.4 274.947 161.957 274.597 161.49 273.71C160.323 271.377 159.74 268.997 159.74 266.57C159.74 264.097 160.58 261.6 162.26 259.08C165.293 254.507 169.82 251.707 175.84 250.68C178.873 250.213 181.347 249.98 183.26 249.98C189.187 249.98 193.807 250.913 197.12 252.78C202.393 255.72 205.66 259.78 206.92 264.96C207.573 267.48 207.9 270.163 207.9 273.01C207.9 275.857 207.41 278.82 206.43 281.9C205.497 284.933 204.26 287.85 202.72 290.65C201.227 293.403 199.313 296.04 196.98 298.56C190.447 305.793 183.353 309.41 175.7 309.41C172.433 309.41 169.657 308.57 167.37 306.89C165.083 305.21 163.427 303.087 162.4 300.52C161.28 297.673 160.72 294.873 160.72 292.12C160.72 289.367 161.023 286.8 161.63 284.42C162.237 282.04 163.123 279.567 164.29 277C165.503 274.433 166.927 272.123 168.56 270.07C170.193 268.017 171.943 266.127 173.81 264.4C177.263 261.18 181.16 259.407 185.5 259.08C185.78 259.033 186.037 259.01 186.27 259.01C187.903 259.01 189.49 259.453 191.03 260.34C191.357 260.527 191.52 260.713 191.52 260.9C191.567 261.087 191.473 261.227 191.24 261.32C191.007 261.413 190.657 261.39 190.19 261.25C189.723 261.11 189.117 261.04 188.37 261.04ZM183.96 326.98C180.367 324.927 176.983 322.267 173.81 319C172.457 317.647 171.173 316.387 169.96 315.22C167.207 312.653 164.477 311.37 161.77 311.37C160.79 311.37 159.787 311.673 158.76 312.28C157.78 312.933 157.243 313.633 157.15 314.38C157.103 315.173 156.917 315.547 156.59 315.5C156.217 315.5 156.03 315.033 156.03 314.1C156.03 313.213 156.613 312.187 157.78 311.02C158.993 309.853 160.323 309.27 161.77 309.27C165.783 309.27 170.147 311.16 174.86 314.94C176.913 316.62 179.06 318.323 181.3 320.05C183.587 321.823 186.387 323.527 189.7 325.16C193.06 326.793 196.677 327.983 200.55 328.73C201.903 329.01 203.14 329.15 204.26 329.15C207.107 329.15 209.043 328.263 210.07 326.49C210.537 325.697 210.77 324.74 210.77 323.62C210.77 322.547 210.257 321.263 209.23 319.77C207.083 316.597 203.77 314.637 199.29 313.89C198.543 313.797 198.17 313.517 198.17 313.05C198.17 312.63 198.473 312.467 199.08 312.56C204.54 313.447 208.507 315.523 210.98 318.79C212.147 320.423 212.73 321.847 212.73 323.06C212.73 324.32 212.45 325.44 211.89 326.42C210.163 329.36 206.197 330.83 199.99 330.83C193.83 330.83 188.487 329.547 183.96 326.98ZM208.177 300.94C208.177 298.933 209.04 296.507 210.767 293.66C210.02 293.66 209.81 293.287 210.137 292.54L211.397 290.09C212.983 287.057 214.29 284.49 215.317 282.39C215.783 281.41 216.693 280.92 218.047 280.92H222.317C220.637 282.133 218.933 284.49 217.207 287.99C215.527 291.443 214.22 294.173 213.287 296.18C212.353 298.14 211.887 299.633 211.887 300.66C211.887 301.687 212.05 302.41 212.377 302.83C212.75 303.25 213.24 303.46 213.847 303.46C214.733 303.46 215.97 302.527 217.557 300.66C220.03 297.767 223.507 291.677 227.987 282.39C228.5 281.41 229.41 280.92 230.717 280.92H234.497C233.47 281.713 232.653 282.53 232.047 283.37C231.487 284.21 230.693 285.703 229.667 287.85C226.867 293.45 225.303 297.16 224.977 298.98C224.837 299.633 224.767 300.24 224.767 300.8C224.767 302.293 225.28 303.087 226.307 303.18C228.827 303.18 231.93 299.283 235.617 291.49C235.897 290.837 236.177 290.58 236.457 290.72C236.737 290.86 236.877 291.047 236.877 291.28C236.877 291.513 236.667 292.05 236.247 292.89C235.827 293.73 235.407 294.547 234.987 295.34C234.613 296.133 234.007 297.23 233.167 298.63C232.373 299.983 231.627 301.057 230.927 301.85C229.107 303.903 227.31 304.93 225.537 304.93C223.81 304.93 222.62 304.16 221.967 302.62C221.687 301.92 221.547 301.033 221.547 299.96C221.547 298.887 221.78 297.557 222.247 295.97C218.84 301.943 215.69 304.93 212.797 304.93C210.277 304.93 208.807 303.88 208.387 301.78C208.247 301.547 208.177 301.267 208.177 300.94ZM248.386 280.5C251.793 280.5 253.496 282.647 253.496 286.94C253.496 288.9 252.983 291 251.956 293.24C250.65 296.273 248.69 299.027 246.076 301.5C246.683 302.667 247.78 303.25 249.366 303.25C250.626 303.25 251.816 302.62 252.936 301.36C254.336 299.913 255.34 298.653 255.946 297.58C256.553 296.46 256.996 295.643 257.276 295.13C257.556 294.617 257.906 293.893 258.326 292.96C258.793 291.98 259.073 291.397 259.166 291.21C259.26 290.977 259.423 290.86 259.656 290.86C260.123 290.813 260.356 290.977 260.356 291.35C260.356 291.49 260.31 291.653 260.216 291.84L259.796 292.82C259.516 293.473 259.306 293.94 259.166 294.22C259.026 294.5 258.77 295.013 258.396 295.76C258.07 296.46 257.766 297.02 257.486 297.44C257.253 297.86 256.903 298.42 256.436 299.12C256.016 299.82 255.62 300.38 255.246 300.8C254.92 301.22 254.5 301.687 253.986 302.2C253.473 302.713 252.983 303.11 252.516 303.39C251.35 304.09 250.253 304.44 249.226 304.44C247.313 304.44 245.82 303.833 244.746 302.62C242.6 304.207 240.616 305 238.796 305C235.39 305 233.686 302.853 233.686 298.56C233.686 296.6 234.2 294.5 235.226 292.26C236.626 288.993 238.586 286.217 241.106 283.93C243.673 281.643 246.1 280.5 248.386 280.5ZM249.156 282.67C247.896 282.67 246.403 283.51 244.676 285.19C242.95 286.87 241.41 289.157 240.056 292.05C238.423 295.41 237.606 298.163 237.606 300.31C237.606 302.457 238.423 303.53 240.056 303.53C241.223 303.53 242.53 302.9 243.976 301.64C243.23 300.567 242.856 299.423 242.856 298.21C242.95 296.203 243.766 295.2 245.306 295.2C245.913 295.2 246.403 295.41 246.776 295.83C247.196 296.25 247.406 296.647 247.406 297.02C247.406 297.347 247.36 297.697 247.266 298.07C248.06 296.903 248.97 295.247 249.996 293.1C251.163 290.72 251.746 288.387 251.746 286.1C251.746 283.813 250.883 282.67 249.156 282.67ZM257.344 299.4C257.344 295.527 259.21 289.04 262.944 279.94H259.304C259.07 279.94 258.907 279.823 258.814 279.59C258.767 279.31 258.79 279.053 258.884 278.82C259.024 278.54 259.21 278.4 259.444 278.4H263.644C265.324 274.713 266.887 271.633 268.334 269.16C269.78 266.687 271.11 265.03 272.324 264.19C273.537 263.303 274.4 262.86 274.914 262.86C275.474 262.86 275.87 262.907 276.104 263C277.177 263.513 277.714 264.587 277.714 266.22C277.714 267.807 277.177 269.743 276.104 272.03C275.03 274.317 273.98 276.44 272.954 278.4H276.314C276.547 278.4 276.687 278.54 276.734 278.82C276.827 279.053 276.804 279.31 276.664 279.59C276.57 279.823 276.407 279.94 276.174 279.94H272.114C269.547 284.28 266.444 288.13 262.804 291.49L261.194 298.63C261.054 299.237 260.984 299.843 260.984 300.45C260.984 301.01 261.147 301.593 261.474 302.2C261.8 302.807 262.314 303.11 263.014 303.11C263.807 303.11 264.694 302.83 265.674 302.27C267.914 300.59 270.387 297.067 273.094 291.7C273.28 291.28 273.49 291.023 273.724 290.93C274.004 290.837 274.167 290.907 274.214 291.14C274.26 291.327 274.19 291.653 274.004 292.12C272.464 295.34 271.25 297.627 270.364 298.98C267.844 303.04 265.16 305.07 262.314 305.07C260.867 305.07 259.677 304.533 258.744 303.46C257.81 302.387 257.344 301.033 257.344 299.4ZM271.414 278.4C274.494 272.893 276.034 269.067 276.034 266.92C276.034 265.987 275.87 265.52 275.544 265.52C275.03 265.52 274.237 266.267 273.164 267.76C272.137 269.253 270.387 272.8 267.914 278.4H271.414ZM270.504 279.94H267.214C266.654 281.247 265.394 284.35 263.434 289.25C265.954 286.637 268.31 283.533 270.504 279.94ZM276.187 294.22C275.534 295.807 275.207 297.58 275.207 299.54C275.207 300.847 275.487 301.897 276.047 302.69C276.654 303.437 277.494 303.81 278.567 303.81C282.814 303.81 286.664 299.82 290.117 291.84C290.444 291.093 290.841 290.767 291.307 290.86C291.494 290.907 291.587 291.023 291.587 291.21C291.587 291.397 291.051 292.633 289.977 294.92C288.951 297.16 287.901 298.98 286.827 300.38C284.447 303.647 281.507 305.28 278.007 305.28C276.141 305.28 274.554 304.673 273.247 303.46C271.941 302.247 271.287 300.59 271.287 298.49C271.287 296.39 271.777 294.173 272.757 291.84C273.784 289.46 275.161 287.267 276.887 285.26C278.614 283.207 280.597 281.713 282.837 280.78C283.911 280.313 284.937 280.08 285.917 280.08C286.897 280.08 287.807 280.36 288.647 280.92C289.441 281.573 289.837 282.297 289.837 283.09C289.837 285.89 288.157 288.573 284.797 291.14C283.771 291.933 282.324 292.657 280.457 293.31C278.591 293.917 277.167 294.22 276.187 294.22ZM287.947 283.02C287.947 282.087 287.574 281.62 286.827 281.62C285.521 281.62 283.537 283.23 280.877 286.45C279.291 288.41 277.891 290.603 276.677 293.03C277.471 293.03 278.614 292.75 280.107 292.19C281.647 291.63 282.977 290.883 284.097 289.95C286.664 287.757 287.947 285.447 287.947 283.02Z" fill="black"/>
<path d="M176.27 418H180.54V370.54H196.64V366.97H160.24V370.54H176.27V418ZM215.374 418.91C220.764 418.91 224.264 417.16 227.274 415.27L225.734 412.26C222.934 414.22 219.784 415.48 215.794 415.48C207.744 415.48 202.354 409.11 202.144 400.01H228.604C228.744 399.1 228.814 398.12 228.814 397.07C228.814 386.15 223.424 379.71 214.394 379.71C205.994 379.71 198.014 387.27 198.014 399.38C198.014 411.63 205.784 418.91 215.374 418.91ZM202.144 396.79C202.914 388.25 208.374 383.21 214.464 383.21C220.974 383.21 225.104 387.76 225.104 396.79H202.144ZM232.536 418H236.876L242.896 408.13C244.366 405.82 245.696 403.51 247.096 401.34H247.446C248.986 403.51 250.456 405.82 251.716 408.13L258.086 418H262.636L250.036 398.89L261.586 380.69H257.316L251.786 389.86C250.526 391.96 249.336 393.99 248.076 396.02H247.796C246.396 393.99 245.066 391.96 243.806 389.86L238.066 380.69H233.586L245.136 398.47L232.536 418ZM279.475 418.91C281.155 418.91 283.535 418.28 285.705 417.51L284.725 414.29C283.395 414.92 281.575 415.41 280.175 415.41C275.205 415.41 273.945 412.33 273.945 407.64V384.12H284.655V380.69H273.945V369.91H270.515L270.025 380.69L264.075 381.04V384.12H269.885V407.36C269.885 414.29 272.125 418.91 279.475 418.91Z" fill="black"/>
<defs>
<filter id="filter0_d" x="606" y="370" width="96" height="96" filterUnits="userSpaceOnUse" color-interpolation-filters="sRGB">
<feFlood flood-opacity="0" result="BackgroundImageFix"/>
<feColorMatrix in="SourceAlpha" type="matrix" values="0 0 0 0 0 0 0 0 0 0 0 0 0 0 0 0 0 0 127 0" result="hardAlpha"/>
<feOffset dy="4"/>
<feGaussianBlur stdDeviation="2"/>
<feComposite in2="hardAlpha" operator="out"/>
<feColorMatrix type="matrix" values="0 0 0 0 0 0 0 0 0 0 0 0 0 0 0 0 0 0 0.25 0"/>
<feBlend mode="normal" in2="BackgroundImageFix" result="effect1_dropShadow"/>
<feBlend mode="normal" in="SourceGraphic" in2="effect1_dropShadow" result="shape"/>
</filter>
<filter id="filter1_d" x="606" y="73" width="96" height="96" filterUnits="userSpaceOnUse" color-interpolation-filters="sRGB">
<feFlood flood-opacity="0" result="BackgroundImageFix"/>
<feColorMatrix in="SourceAlpha" type="matrix" values="0 0 0 0 0 0 0 0 0 0 0 0 0 0 0 0 0 0 127 0" result="hardAlpha"/>
<feOffset dy="4"/>
<feGaussianBlur stdDeviation="2"/>
<feComposite in2="hardAlpha" operator="out"/>
<feColorMatrix type="matrix" values="0 0 0 0 0 0 0 0 0 0 0 0 0 0 0 0 0 0 0.25 0"/>
<feBlend mode="normal" in2="BackgroundImageFix" result="effect1_dropShadow"/>
<feBlend mode="normal" in="SourceGraphic" in2="effect1_dropShadow" result="shape"/>
</filter>
<filter id="filter2_d" x="606" y="172" width="96" height="96" filterUnits="userSpaceOnUse" color-interpolation-filters="sRGB">
<feFlood flood-opacity="0" result="BackgroundImageFix"/>
<feColorMatrix in="SourceAlpha" type="matrix" values="0 0 0 0 0 0 0 0 0 0 0 0 0 0 0 0 0 0 127 0" result="hardAlpha"/>
<feOffset dy="4"/>
<feGaussianBlur stdDeviation="2"/>
<feComposite in2="hardAlpha" operator="out"/>
<feColorMatrix type="matrix" values="0 0 0 0 0 0 0 0 0 0 0 0 0 0 0 0 0 0 0.25 0"/>
<feBlend mode="normal" in2="BackgroundImageFix" result="effect1_dropShadow"/>
<feBlend mode="normal" in="SourceGraphic" in2="effect1_dropShadow" result="shape"/>
</filter>
<filter id="filter3_d" x="606" y="271" width="96" height="96" filterUnits="userSpaceOnUse" color-interpolation-filters="sRGB">
<feFlood flood-opacity="0" result="BackgroundImageFix"/>
<feColorMatrix in="SourceAlpha" type="matrix" values="0 0 0 0 0 0 0 0 0 0 0 0 0 0 0 0 0 0 127 0" result="hardAlpha"/>
<feOffset dy="4"/>
<feGaussianBlur stdDeviation="2"/>
<feComposite in2="hardAlpha" operator="out"/>
<feColorMatrix type="matrix" values="0 0 0 0 0 0 0 0 0 0 0 0 0 0 0 0 0 0 0.25 0"/>
<feBlend mode="normal" in2="BackgroundImageFix" result="effect1_dropShadow"/>
<feBlend mode="normal" in="SourceGraphic" in2="effect1_dropShadow" result="shape"/>
</filter>
</defs>
</svg>
